<svg width="217" height="119" viewBox="0 0 217 119" fill="none" xmlns="http://www.w3.org/2000/svg">
<path d="M202.96 46.04H175.6V38.2H214.24L193.6 97H183.36L202.96 46.04Z" fill="#0B0F54"/>
<path d="M196.96 37.04H169.6V29.2H208.24L187.6 88H177.36L196.96 37.04Z" fill="#1198E4"/>
<path d="M22.8 93.8C19.1733 93.8 15.8933 93.0267 12.96 91.48C10.08 89.88 7.78667 87.6133 6.08 84.68C4.37333 81.6933 3.52 78.2 3.52 74.2C3.52 70.4133 4.29333 67.1067 5.84 64.28C7.44 61.4 9.65333 59.1867 12.48 57.64C15.36 56.0933 18.6667 55.32 22.4 55.32C25.2267 55.32 27.6533 55.6933 29.68 56.44C31.76 57.1333 33.3867 58.0133 34.56 59.08L30.72 66.04C28.48 63.8 25.9467 62.68 23.12 62.68C19.7067 62.68 17.0933 63.72 15.28 65.8C13.52 67.88 12.64 70.6533 12.64 74.12C12.64 78.0667 13.5467 81.1333 15.36 83.32C17.2267 85.5067 19.8133 86.6 23.12 86.6C24.7733 86.6 26.3733 86.36 27.92 85.88C29.52 85.4 30.7467 84.84 31.6 84.2L34.72 90.28C33.5467 91.1867 31.8933 92.0133 29.76 92.76C27.68 93.4533 25.36 93.8 22.8 93.8ZM60.0656 93.8C56.279 93.8 52.919 92.9467 49.9856 91.24C47.0523 89.5333 44.7856 87.2133 43.1856 84.28C41.5856 81.3467 40.7856 78.0933 40.7856 74.52C40.7856 71 41.559 67.7733 43.1056 64.84C44.7056 61.9067 46.9723 59.5867 49.9056 57.88C52.839 56.1733 56.2256 55.32 60.0656 55.32C63.9056 55.32 67.2656 56.1733 70.1456 57.88C73.079 59.5867 75.319 61.9067 76.8656 64.84C78.4656 67.7733 79.2656 71 79.2656 74.52C79.2656 78.0933 78.4656 81.3467 76.8656 84.28C75.2656 87.2133 72.999 89.5333 70.0656 91.24C67.1856 92.9467 63.8523 93.8 60.0656 93.8ZM60.3056 86.76C63.399 86.76 65.8256 85.6133 67.5856 83.32C69.399 81.0267 70.3056 78.1467 70.3056 74.68C70.3056 71.2133 69.3456 68.3067 67.4256 65.96C65.5056 63.56 62.9723 62.36 59.8256 62.36C56.7856 62.36 54.3323 63.5333 52.4656 65.88C50.6523 68.2267 49.7456 71.16 49.7456 74.68C49.7456 78.0933 50.7323 80.9733 52.7056 83.32C54.679 85.6133 57.2123 86.76 60.3056 86.76ZM104.733 93.8C101.426 93.8 98.3592 93.0267 95.5325 91.48C92.7592 89.88 90.5192 87.64 88.8125 84.76C87.1592 81.8267 86.3325 78.4133 86.3325 74.52C86.3325 68.7067 87.9592 64.0667 91.2125 60.6C94.4658 57.08 98.8658 55.32 104.413 55.32C107.506 55.32 110.333 56.0933 112.893 57.64C115.453 59.1333 117.186 60.9467 118.093 63.08L117.693 56.84V34.2H126.173V93H117.933L117.773 86.52C116.866 88.44 115.213 90.1467 112.813 91.64C110.413 93.08 107.719 93.8 104.733 93.8ZM106.173 86.52C109.213 86.52 111.773 85.48 113.853 83.4C115.933 81.2667 116.973 78.4933 116.973 75.08V74.52C116.973 72.2267 116.493 70.1733 115.533 68.36C114.573 66.5467 113.266 65.1333 111.613 64.12C109.959 63.1067 108.146 62.6 106.173 62.6C102.759 62.6 100.119 63.72 98.2525 65.96C96.3858 68.1467 95.4525 71 95.4525 74.52C95.4525 78.0933 96.3592 81 98.1725 83.24C100.039 85.4267 102.706 86.52 106.173 86.52ZM154.993 93.8C150.62 93.8 146.966 92.9467 144.033 91.24C141.1 89.48 138.94 87.16 137.553 84.28C136.166 81.3467 135.473 78.1467 135.473 74.68C135.473 70.7867 136.273 67.3733 137.873 64.44C139.526 61.5067 141.793 59.2667 144.673 57.72C147.553 56.12 150.806 55.32 154.433 55.32C160.086 55.32 164.273 56.8933 166.993 60.04C169.766 63.1333 171.153 67.5067 171.153 73.16C171.153 74.6 171.073 76.0933 170.913 77.64H144.513C145.1 80.8933 146.246 83.24 147.953 84.68C149.713 86.12 152.14 86.84 155.233 86.84C157.793 86.84 159.9 86.6267 161.553 86.2C163.206 85.7733 164.726 85.1867 166.113 84.44L168.753 90.6C167.42 91.4533 165.606 92.2 163.313 92.84C161.02 93.48 158.246 93.8 154.993 93.8ZM162.753 71.64C162.806 68.3333 162.086 66.0133 160.593 64.68C159.1 63.2933 156.966 62.6 154.193 62.6C148.593 62.6 145.366 65.6133 144.513 71.64H162.753Z" fill="#0B0F54"/>
</svg>
